<?xml version="1.0" standalone="no"?><svg xmlns="http://www.w3.org/2000/svg" viewBox="0 0 1440 320"><path fill="#ff5500" fill-opacity="0.8" d="M0,256L24,213.3C48,171,96,85,144,42.7C192,0,240,0,288,53.3C336,107,384,213,432,229.3C480,245,528,171,576,154.7C624,139,672,181,720,202.7C768,224,816,224,864,192C912,160,960,96,1008,85.3C1056,75,1104,117,1152,160C1200,203,1248,245,1296,229.3C1344,213,1392,139,1416,101.3L1440,64L1440,320L1416,320C1392,320,1344,320,1296,320C1248,320,1200,320,1152,320C1104,320,1056,320,1008,320C960,320,912,320,864,320C816,320,768,320,720,320C672,320,624,320,576,320C528,320,480,320,432,320C384,320,336,320,288,320C240,320,192,320,144,320C96,320,48,320,24,320L0,320Z"></path></svg>